<svg width="20" height="18" viewBox="0 0 20 18" fill="none" xmlns="http://www.w3.org/2000/svg">
<path d="M19.25 6.14999C16.94 2.51999 13.56 0.429993 10 0.429993C8.22 0.429993 6.49 0.949993 4.91 1.91999C3.33 2.89999 1.91 4.32999 0.75 6.14999C-0.25 7.71999 -0.25 10.27 0.75 11.84C3.06 15.48 6.44 17.56 10 17.56C11.78 17.56 13.51 17.04 15.09 16.07C16.67 15.09 18.09 13.66 19.25 11.84C20.25 10.28 20.25 7.71999 19.25 6.14999ZM10 13.04C7.76 13.04 5.96 11.23 5.96 8.99999C5.96 6.76999 7.76 4.95999 10 4.95999C12.24 4.95999 14.04 6.76999 14.04 8.99999C14.04 11.23 12.24 13.04 10 13.04Z" fill="#DADADA"/>
<path d="M10 6.14001C8.43002 6.14001 7.15002 7.42001 7.15002 9.00001C7.15002 10.57 8.43002 11.85 10 11.85C11.57 11.85 12.86 10.57 12.86 9.00001C12.86 7.43001 11.57 6.14001 10 6.14001Z" fill="#DADADA"/>
</svg>
