<svg width="45" height="45" viewBox="0 0 45 45" fill="none" xmlns="http://www.w3.org/2000/svg">
<path d="M22.6034 4.36139C12.5888 4.36139 4.4281 12.3989 4.4281 22.2623C4.4281 32.1257 12.5888 40.1633 22.6034 40.1633C32.618 40.1633 40.7787 32.1257 40.7787 22.2623C40.7787 12.3989 32.618 4.36139 22.6034 4.36139ZM29.8735 23.6049H23.9665V29.4227C23.9665 30.1566 23.3486 30.7653 22.6034 30.7653C21.8582 30.7653 21.2402 30.1566 21.2402 29.4227V23.6049H15.3333C14.5881 23.6049 13.9701 22.9963 13.9701 22.2623C13.9701 21.5284 14.5881 20.9198 15.3333 20.9198H21.2402V15.102C21.2402 14.368 21.8582 13.7594 22.6034 13.7594C23.3486 13.7594 23.9665 14.368 23.9665 15.102V20.9198H29.8735C30.6187 20.9198 31.2366 21.5284 31.2366 22.2623C31.2366 22.9963 30.6187 23.6049 29.8735 23.6049Z" fill="url(#paint0_linear_35_20)"/>
<path d="M22.6034 4.36139C12.5888 4.36139 4.4281 12.3989 4.4281 22.2623C4.4281 32.1257 12.5888 40.1633 22.6034 40.1633C32.618 40.1633 40.7787 32.1257 40.7787 22.2623C40.7787 12.3989 32.618 4.36139 22.6034 4.36139ZM29.8735 23.6049H23.9665V29.4227C23.9665 30.1566 23.3486 30.7653 22.6034 30.7653C21.8582 30.7653 21.2402 30.1566 21.2402 29.4227V23.6049H15.3333C14.5881 23.6049 13.9701 22.9963 13.9701 22.2623C13.9701 21.5284 14.5881 20.9198 15.3333 20.9198H21.2402V15.102C21.2402 14.368 21.8582 13.7594 22.6034 13.7594C23.3486 13.7594 23.9665 14.368 23.9665 15.102V20.9198H29.8735C30.6187 20.9198 31.2366 21.5284 31.2366 22.2623C31.2366 22.9963 30.6187 23.6049 29.8735 23.6049Z" fill="#CACACA"/>
<path d="M22.6034 4.36139C12.5888 4.36139 4.4281 12.3989 4.4281 22.2623C4.4281 32.1257 12.5888 40.1633 22.6034 40.1633C32.618 40.1633 40.7787 32.1257 40.7787 22.2623C40.7787 12.3989 32.618 4.36139 22.6034 4.36139ZM29.8735 23.6049H23.9665V29.4227C23.9665 30.1566 23.3486 30.7653 22.6034 30.7653C21.8582 30.7653 21.2402 30.1566 21.2402 29.4227V23.6049H15.3333C14.5881 23.6049 13.9701 22.9963 13.9701 22.2623C13.9701 21.5284 14.5881 20.9198 15.3333 20.9198H21.2402V15.102C21.2402 14.368 21.8582 13.7594 22.6034 13.7594C23.3486 13.7594 23.9665 14.368 23.9665 15.102V20.9198H29.8735C30.6187 20.9198 31.2366 21.5284 31.2366 22.2623C31.2366 22.9963 30.6187 23.6049 29.8735 23.6049Z" fill="#0077B5"/>
<defs>
<linearGradient id="paint0_linear_35_20" x1="8.06316" y1="10.0897" x2="30.9059" y2="38.3559" gradientUnits="userSpaceOnUse">
<stop stop-color="#901438"/>
<stop offset="1" stop-color="#F40F51"/>
</linearGradient>
</defs>
</svg>
