<svg width="16" height="16" viewBox="0 0 16 16" fill="none" xmlns="http://www.w3.org/2000/svg">
<path d="M7.99998 1.33334C4.32665 1.33334 1.33331 4.32668 1.33331 8.00001C1.33331 11.6733 4.32665 14.6667 7.99998 14.6667C11.6733 14.6667 14.6666 11.6733 14.6666 8.00001C14.6666 4.32668 11.6733 1.33334 7.99998 1.33334ZM11.1866 6.46668L7.40665 10.2467C7.31331 10.34 7.18665 10.3933 7.05331 10.3933C6.91998 10.3933 6.79331 10.34 6.69998 10.2467L4.81331 8.36001C4.61998 8.16668 4.61998 7.84668 4.81331 7.65334C5.00665 7.46001 5.32665 7.46001 5.51998 7.65334L7.05331 9.18668L10.48 5.76001C10.6733 5.56668 10.9933 5.56668 11.1866 5.76001C11.38 5.95334 11.38 6.26668 11.1866 6.46668Z" fill="#04CB0C"/>
</svg>
