<svg width="16" height="16" viewBox="0 0 16 16" fill="none" xmlns="http://www.w3.org/2000/svg">
<path d="M7.99998 1.33334C4.32665 1.33334 1.33331 4.32668 1.33331 8.00001C1.33331 11.6733 4.32665 14.6667 7.99998 14.6667C11.6733 14.6667 14.6666 11.6733 14.6666 8.00001C14.6666 4.32668 11.6733 1.33334 7.99998 1.33334ZM10.24 9.53334C10.4333 9.72668 10.4333 10.0467 10.24 10.24C10.14 10.34 10.0133 10.3867 9.88665 10.3867C9.75998 10.3867 9.63331 10.34 9.53331 10.24L7.99998 8.70668L6.46665 10.24C6.36665 10.34 6.23998 10.3867 6.11331 10.3867C5.98665 10.3867 5.85998 10.34 5.75998 10.24C5.56665 10.0467 5.56665 9.72668 5.75998 9.53334L7.29331 8.00001L5.75998 6.46668C5.56665 6.27334 5.56665 5.95334 5.75998 5.76001C5.95331 5.56668 6.27331 5.56668 6.46665 5.76001L7.99998 7.29334L9.53331 5.76001C9.72665 5.56668 10.0466 5.56668 10.24 5.76001C10.4333 5.95334 10.4333 6.27334 10.24 6.46668L8.70665 8.00001L10.24 9.53334Z" fill="#D0D0D0"/>
</svg>
