<svg width="41" height="47" viewBox="0 0 41 47" fill="none" xmlns="http://www.w3.org/2000/svg">
<path d="M23 2.59808L37.3516 10.884C38.8986 11.7771 39.8516 13.4278 39.8516 15.2141V31.7859C39.8516 33.5722 38.8986 35.2229 37.3516 36.116L23 44.4019C21.453 45.2951 19.547 45.2951 18 44.4019L3.6484 36.116C2.1014 35.2229 1.1484 33.5722 1.1484 31.7859V15.2141C1.1484 13.4278 2.1014 11.7771 3.6484 10.884L18 2.59808C19.547 1.70491 21.453 1.70491 23 2.59808Z" fill="url(#paint0_linear_231_26)"/>
<path d="M23 2.59808L37.3516 10.884C38.8986 11.7771 39.8516 13.4278 39.8516 15.2141V31.7859C39.8516 33.5722 38.8986 35.2229 37.3516 36.116L23 44.4019C21.453 45.2951 19.547 45.2951 18 44.4019L3.6484 36.116C2.1014 35.2229 1.1484 33.5722 1.1484 31.7859V15.2141C1.1484 13.4278 2.1014 11.7771 3.6484 10.884L18 2.59808C19.547 1.70491 21.453 1.70491 23 2.59808Z" fill="#4ECED7"/>
<path d="M23 2.59808L37.3516 10.884C38.8986 11.7771 39.8516 13.4278 39.8516 15.2141V31.7859C39.8516 33.5722 38.8986 35.2229 37.3516 36.116L23 44.4019C21.453 45.2951 19.547 45.2951 18 44.4019L3.6484 36.116C2.1014 35.2229 1.1484 33.5722 1.1484 31.7859V15.2141C1.1484 13.4278 2.1014 11.7771 3.6484 10.884L18 2.59808C19.547 1.70491 21.453 1.70491 23 2.59808Z" fill="#7BACEA"/>
<path d="M23 2.59808L37.3516 10.884C38.8986 11.7771 39.8516 13.4278 39.8516 15.2141V31.7859C39.8516 33.5722 38.8986 35.2229 37.3516 36.116L23 44.4019C21.453 45.2951 19.547 45.2951 18 44.4019L3.6484 36.116C2.1014 35.2229 1.1484 33.5722 1.1484 31.7859V15.2141C1.1484 13.4278 2.1014 11.7771 3.6484 10.884L18 2.59808C19.547 1.70491 21.453 1.70491 23 2.59808Z" stroke="white" stroke-width="2"/>
<defs>
<linearGradient id="paint0_linear_231_26" x1="-2.5488" y1="4.61606" x2="44.3073" y2="4.95857" gradientUnits="userSpaceOnUse">
<stop stop-color="#00A7E1"/>
<stop offset="1" stop-color="#004BA8"/>
</linearGradient>
</defs>
</svg>
