<svg width="20" height="23" viewBox="0 0 20 23" fill="none" xmlns="http://www.w3.org/2000/svg">
<path d="M6.05016 11.5973H13.1209" stroke="#555454" stroke-width="1.5" stroke-miterlimit="10" stroke-linecap="round" stroke-linejoin="round"/>
<path d="M6.05016 15.7532H10.4744" stroke="#555454" stroke-width="1.5" stroke-miterlimit="10" stroke-linecap="round" stroke-linejoin="round"/>
<path d="M8.07036 5.15585H12.1108C14.131 5.15585 14.131 4.11688 14.131 3.07792C14.131 1 13.1209 1 12.1108 1H8.07036C7.06026 1 6.05016 1 6.05016 3.07792C6.05016 5.15585 7.06026 5.15585 8.07036 5.15585Z" stroke="#555454" stroke-width="1.5" stroke-miterlimit="10" stroke-linecap="round" stroke-linejoin="round"/>
<path d="M14.1313 3.09862C17.4949 3.28563 19.1818 4.56355 19.1818 9.31161V15.5454C19.1818 19.7012 18.1717 21.7791 13.1212 21.7791H7.06061C2.0101 21.7791 1 19.7012 1 15.5454V9.31161C1 4.57394 2.68687 3.28563 6.0505 3.09862" stroke="#555454" stroke-width="1.5" stroke-miterlimit="10" stroke-linecap="round" stroke-linejoin="round"/>
</svg>
