<svg width="5" height="19" viewBox="0 0 5 19" fill="none" xmlns="http://www.w3.org/2000/svg">
<path d="M2.16667 4.33333C3.36328 4.33333 4.33333 3.36328 4.33333 2.16667C4.33333 0.97005 3.36328 0 2.16667 0C0.97005 0 0 0.97005 0 2.16667C0 3.36328 0.97005 4.33333 2.16667 4.33333Z" fill="#C2C2C2"/>
<path d="M2.16667 11.5556C3.36328 11.5556 4.33333 10.5855 4.33333 9.3889C4.33333 8.19228 3.36328 7.22223 2.16667 7.22223C0.97005 7.22223 0 8.19228 0 9.3889C0 10.5855 0.97005 11.5556 2.16667 11.5556Z" fill="#C2C2C2"/>
<path d="M2.16667 18.7778C3.36328 18.7778 4.33333 17.8077 4.33333 16.6111C4.33333 15.4145 3.36328 14.4444 2.16667 14.4444C0.97005 14.4444 0 15.4145 0 16.6111C0 17.8077 0.97005 18.7778 2.16667 18.7778Z" fill="#C2C2C2"/>
</svg>
